Coordinates																																									
version=1																																									
nRows=18																																									
nColumns=42																																									
inDegrees=yes																																									
																																									
"Units are S.I. units (second, meters, Newtons, ...)"																																									
Angles are in degrees.																																									
																																									
endheader																																									
time	pelvis_tx	pelvis_ty	pelvis_tz	pelvis_tilt	pelvis_list	pelvis_rotation	hip_flexion_r	hip_adduction_r	hip_rotation_r	knee_angle_r	ankle_angle_r	subtalar_angle_r	mtp_angle_r	hip_flexion_l	hip_adduction_l	hip_rotation_l	knee_angle_l	ankle_angle_l	subtalar_angle_l	mtp_angle_l	lumbar_extension	lumbar_bending	lumbar_rotation	ground_force_vx	ground_force_vy	ground_force_vz	ground_force_px	ground_force_py	ground_force_pz	ground_force_vx	ground_force_vy	ground_force_vz	ground_force_px	ground_force_py	ground_force_pz	ground_torque_x	ground_torque_y	ground_torque_z	ground_torque_x	ground_torque_y	ground_torque_z
2.27	-0.005073	0.696715	-0.24546	-10.294367	-7.238573	69.378311	-4.827243	-5.083169	13.772218	-34.515856	20.342742	0	0	29.452882	10.521156	27.477122	-37.679019	16.281008	0	0	31.364403	-9.549634	14.705512	-13.719861	56.6633	-0.993067	0.00343	0.009875	0.085064	26.426521	289.767731	48.376102	-0.106072	-0.002052	-0.331974	0.000824	0.078414	-0.00125	-0.000206	0.492005	-0.001171
2.28	-0.004619	0.696831	-0.253288	-10.946295	-7.109029	69.855247	-4.916055	-5.955117	11.060863	-34.484467	18.49871	0	0	28.820837	11.041278	26.372238	-36.999903	15.99591	0	0	31.141793	-10.301251	14.613965	-12.57431	43.727524	1.354754	0.005869	0.008073	0.083477	29.206196	299.592224	47.308872	-0.10623	-0.00292	-0.332804	-0.000061	-0.005847	0.000093	-0.000267	0.638654	-0.00152
2.29	-0.004102	0.697156	-0.260991	-11.579819	-7.039015	70.232109	-4.909289	-6.748168	8.608099	-34.528901	16.785258	0	0	28.174833	11.522031	25.411343	-36.229127	15.732186	0	0	30.974689	-10.985444	14.636103	-11.449612	32.684891	3.016562	0.009773	0.006518	0.082724	31.204487	303.799561	44.553623	-0.106329	-0.003566	-0.333672	-0.000576	-0.05483	0.000874	-0.000317	0.757024	-0.001801
2.3	-0.003399	0.69778	-0.268475	-12.155959	-7.041099	70.452873	-4.759397	-7.403051	6.58663	-34.672964	15.319505	0	0	27.493595	11.916595	24.669875	-35.349651	15.49836	0	0	30.874313	-11.546097	14.79879	-10.31883	23.628359	3.917933	0.015764	0.005303	0.083026	32.298038	302.455963	40.46841	-0.10634	-0.003972	-0.334553	-0.000772	-0.07352	0.001172	-0.000353	0.842003	-0.002004
2.31	-0.002421	0.698725	-0.275667	-12.637511	-7.120098	70.484749	-4.438033	-7.879956	5.06442	-34.914984	14.16409	0	0	26.77407	12.17136	24.140884	-34.365851	15.293277	0	0	30.834732	-11.940972	15.090384	0	0	0	0	0	0	32.526356	296.134674	35.465023	-0.106243	-0.00416	-0.335433	0	0	0	-0.000374	0.893486	-0.002126
2.32	-0.001113	0.699959	-0.282521	-12.99356	-7.272462	70.31562	-3.936723	-8.156675	4.038204	-35.236857	13.337505	0	0	26.023649	12.238223	23.763854	-33.29944	15.113619	0	0	30.838379	-12.144017	15.474306	0	0	0	0	0	0	32.086994	285.80484	29.983469	-0.106017	-0.004178	-0.336328	0	0	0	-0.000384	0.917532	-0.002183
2.33	0.000556	0.701435	-0.289026	-13.206653	-7.478617	69.950218	-3.27281	-8.232977	3.464358	-35.61274	12.829393	0	0	25.242204	12.090751	23.457537	-32.177383	14.956374	0	0	30.856916	-12.151345	15.909269	0	0	0	0	0	0	31.239086	272.709106	24.436277	-0.105644	-0.004079	-0.337278	0	0	0	-0.000386	0.922468	-0.002195
2.34	0.002592	0.703105	-0.295206	-13.274507	-7.700667	69.407227	-2.490654	-8.12941	3.280137	-36.01418	12.61105	0	0	24.411975	11.730766	23.144226	-31.023556	14.819142	0	0	30.852535	-11.981697	16.362422	0	0	0	0	0	0	30.220448	258.234283	19.160738	-0.105114	-0.003915	-0.338329	0	0	0	-0.000384	0.916107	-0.00218
2.35	0.004987	0.704931	-0.301108	-13.204177	-7.890853	68.716125	-1.651001	-7.876514	3.419357	-36.415901	12.641035	0	0	23.502208	11.181518	22.764215	-29.858493	14.701972	0	0	30.783656	-11.667759	16.809859	0	0	0	0	0	0	29.211477	243.744095	14.409604	-0.10444	-0.00372	-0.339525	0	0	0	-0.000379	0.904948	-0.002153
2.36	0.007702	0.706872	-0.306793	-13.007952	-8.009673	67.915543	-0.806292	-7.505845	3.812546	-36.806469	12.87078	0	0	22.487862	10.479102	22.287064	-28.703525	14.607816	0	0	30.617863	-11.245626	17.227134	0	0	0	0	0	0	28.332327	230.396484	10.362587	-0.103671	-0.003518	-0.340898	0	0	0	-0.000374	0.893081	-0.002125
2.37	0.010659	0.708862	-0.312317	-12.705019	-8.050481	67.050514	0.032022	-7.044045	4.3846	-37.19748	13.250345	0	0	21.378262	9.665302	21.716496	-27.585954	14.541534	0	0	30.352889	-10.745651	17.582164	0	0	0	0	0	0	27.650768	219.016556	7.133307	-0.102883	-0.003321	-0.342474	0	0	0	-0.00037	0.883229	-0.002102
2.38	0.013755	0.710798	-0.317728	-12.325414	-8.05047	66.163063	0.908077	-6.510142	5.067752	-37.620894	13.732281	0	0	20.231857	8.780743	21.07807	-26.539431	14.508954	0	0	30.029535	-10.188562	17.841854	0	0	0	0	0	0	27.195305	210.0793	4.765921	-0.102137	-0.003133	-0.344252	0	0	0	-0.000368	0.877816	-0.002089
2.39	0.016895	0.712557	-0.323065	-11.910404	-8.076283	65.282982	1.90453	-5.919365	5.813855	-38.116868	14.275188	0	0	19.141115	7.861674	20.399782	-25.597401	14.515521	0	0	29.722388	-9.588916	17.983605	0	0	0	0	0	0	26.973368	203.777939	3.235691	-0.101464	-0.002962	-0.346189	0	0	0	-0.000368	0.879369	-0.002092
2.4	0.020006	0.714032	-0.328367	-11.502481	-8.192251	64.430855	3.100314	-5.287708	6.589175	-38.717569	14.846046	0	0	18.193648	6.940042	19.706131	-24.784357	14.564666	0	0	29.508794	-8.960769	17.995494	0	0	0	0	0	0	26.978056	200.103699	2.450615	-0.100872	-0.002817	-0.348204	0	0	0	-0.000373	0.890524	-0.002119
2.41	0.023041	0.715175	-0.333681	-11.12679	-8.423446	63.629128	4.518342	-4.632525	7.362057	-39.430525	15.419663	0	0	17.424089	6.043743	19.02498	-24.108126	14.656589	0	0	29.427132	-8.321266	17.867734	0	0	0	0	0	0	27.191877	198.888626	2.256565	-0.100353	-0.00271	-0.350214	0	0	0	-0.000383	0.915462	-0.002178
2.42	0.025978	0.716016	-0.339063	-10.779589	-8.743005	62.907093	6.106402	-3.968211	8.099721	-40.232939	15.97627	0	0	16.796562	5.192987	18.390517	-23.559469	14.789349	0	0	29.45834	-7.687939	17.587655	0	0	0	0	0	0	27.584944	199.851334	2.469541	-0.099906	-0.002646	-0.352171	0	0	0	-0.000401	0.958262	-0.00228
2.43	0.028811	0.716629	-0.344561	-10.436522	-9.099724	62.295135	7.775092	-3.301441	8.77445	-41.082283	16.500431	0	0	16.240182	4.395763	17.836732	-23.121077	14.961044	0	0	29.55138	-7.072173	17.141733	0	0	0	0	0	0	28.110727	202.652344	2.913847	-0.099539	-0.002621	-0.35404	0	0	0	-0.000427	1.018764	-0.002424
2.44	0.031539	0.717083	-0.350206	-10.072768	-9.451061	61.81535	9.448279	-2.635033	9.368716	-41.932464	16.98319	0	0	15.694376	3.651095	17.388444	-22.775242	15.168909	0	0	29.660168	-6.478742	16.523121	0	0	0	0	0	0	28.704523	206.971878	3.465105	-0.099234	-0.002621	-0.355753	0	0	0	-0.000456	1.088306	-0.00259
